<?xml version="1.0" standalone="no"?>
<!DOCTYPE svg PUBLIC "-//W3C//DTD SVG 20010904//EN"
 "http://www.w3.org/TR/2001/REC-SVG-20010904/DTD/svg10.dtd">
<svg version="1.0" xmlns="http://www.w3.org/2000/svg"
 width="512.000000pt" height="512.000000pt" viewBox="0 0 512.000000 512.000000"
 preserveAspectRatio="xMidYMid meet">
<metadata>
Created by potrace 1.14, written by Peter Selinger 2001-2017
</metadata>
<g transform="translate(0.000000,512.000000) scale(0.100000,-0.100000)"
fill="#000000" stroke="none">
<path d="M1738 3945 c-3 -4 -24 -8 -46 -10 -23 -2 -59 -16 -81 -30 -47 -29
-111 -89 -111 -103 0 -6 -4 -12 -9 -14 -13 -5 -61 -86 -61 -103 0 -8 -4 -15
-8 -15 -12 0 -33 -50 -27 -61 4 -5 2 -9 -3 -9 -5 0 -15 -19 -22 -42 -8 -24
-18 -49 -23 -55 -5 -7 -6 -13 -2 -13 4 0 2 -7 -5 -15 -7 -8 -10 -15 -6 -15 3
0 1 -12 -5 -27 -5 -14 -12 -38 -14 -52 -9 -64 -26 -156 -29 -159 -2 -1 -16 -5
-32 -8 -15 -3 -31 -7 -36 -10 -9 -6 -44 -14 -68 -17 -8 -1 -18 -6 -22 -11 -3
-5 -14 -11 -23 -12 -49 -7 -350 -155 -375 -184 -3 -3 -35 -27 -71 -52 -70 -50
-157 -126 -223 -197 -22 -24 -53 -57 -68 -73 -15 -15 -24 -28 -20 -28 4 0 0
-6 -9 -13 -20 -16 -119 -161 -119 -176 0 -6 -4 -11 -10 -11 -5 0 -10 -7 -10
-15 0 -8 -5 -15 -12 -15 -6 0 -9 -3 -5 -6 3 -3 -9 -34 -26 -68 -17 -33 -32
-63 -32 -66 0 -3 -3 -9 -6 -15 -11 -17 -58 -168 -69 -220 -13 -58 -19 -107
-25 -188 -3 -56 -3 -58 33 -85 20 -15 39 -30 40 -34 2 -5 8 -8 13 -8 13 0 151
-93 165 -111 6 -8 21 -43 32 -79 31 -99 40 -197 27 -300 -8 -65 -13 -74 -30
-60 -23 19 -107 -34 -97 -62 1 -5 -2 -8 -8 -8 -6 0 -8 -17 -6 -37 5 -53 17
-103 25 -103 3 0 12 -13 19 -29 7 -16 24 -41 37 -55 13 -14 22 -26 20 -26 -5
0 44 -49 109 -107 26 -24 50 -43 54 -43 5 0 17 -8 28 -17 25 -23 74 -53 97
-60 9 -3 17 -8 17 -12 0 -4 16 -13 35 -21 19 -8 35 -18 35 -22 0 -5 4 -7 9 -4
5 3 14 -1 21 -9 7 -8 17 -15 23 -15 6 0 29 -8 51 -19 77 -35 271 -106 319
-117 4 -1 8 -2 10 -4 1 -1 9 -3 17 -5 8 -2 49 -13 90 -25 41 -11 86 -22 100
-25 14 -3 36 -7 50 -11 14 -3 34 -7 45 -9 11 -2 31 -7 45 -10 14 -3 45 -8 70
-11 25 -3 61 -7 80 -10 73 -9 146 -16 177 -18 17 0 35 -4 38 -8 4 -4 15 -3 25
2 10 5 20 7 23 3 7 -7 177 -10 177 -3 0 3 22 5 49 4 27 0 69 2 93 6 38 5 98
-10 118 -30 3 -3 30 -16 60 -30 30 -14 58 -29 62 -35 4 -5 8 -6 8 -2 0 4 9 3
21 -4 26 -14 182 -68 212 -73 12 -3 22 -5 22 -6 0 -5 97 -23 130 -24 17 -1 33
-5 36 -9 3 -4 65 -10 138 -12 128 -3 132 -3 161 22 27 22 32 41 20 73 -2 3 -2
9 -1 13 1 5 -8 21 -19 37 -11 15 -20 33 -20 39 0 6 -4 11 -9 11 -5 0 -11 8
-15 17 -3 10 -39 63 -80 118 l-75 100 75 37 c41 20 85 40 97 44 11 4 27 13 35
20 7 8 18 12 23 9 5 -4 9 -2 9 2 0 5 23 19 50 32 28 13 50 28 50 32 0 5 3 8 8
7 13 -2 47 15 55 29 4 7 12 13 18 13 12 0 182 110 191 124 5 7 8 7 8 1 0 -7 3
-7 8 0 4 6 44 38 88 72 l82 62 18 -26 c11 -14 24 -30 29 -37 6 -6 22 -26 35
-45 13 -19 38 -50 54 -70 39 -43 236 -242 236 -237 0 2 17 -12 37 -30 20 -19
78 -61 128 -94 49 -33 95 -64 102 -70 7 -5 18 -10 26 -10 8 0 26 -9 41 -21 14
-11 26 -17 26 -12 0 4 4 4 8 -2 8 -11 93 -44 132 -51 14 -3 32 -7 40 -11 33
-14 185 -25 195 -14 3 3 11 6 18 8 7 1 19 4 27 6 35 7 112 53 138 81 79 87 73
204 -17 299 -14 16 -35 38 -46 50 -12 12 -24 30 -28 40 -3 9 -10 17 -15 17 -5
0 -15 14 -22 30 -7 17 -15 30 -19 30 -4 0 -15 17 -26 38 -11 20 -22 39 -25 42
-9 8 -86 170 -116 240 -31 74 -92 250 -98 283 -2 12 -9 34 -14 48 -6 15 -8 29
-6 32 3 3 1 14 -4 24 -18 34 -36 244 -23 268 3 6 6 21 7 35 4 51 92 352 141
480 52 136 116 280 125 280 5 0 6 4 3 10 -3 5 7 30 24 54 17 24 27 46 24 50
-4 3 -1 6 5 6 7 0 12 7 12 15 0 8 5 15 10 15 6 0 10 6 10 13 0 6 25 39 55 72
30 33 65 80 77 105 29 60 28 142 -2 196 -24 42 -97 113 -117 114 -7 0 -13 5
-13 10 0 6 -9 10 -19 10 -11 0 -23 5 -27 11 -3 6 -15 9 -25 6 -11 -3 -19 -2
-19 2 0 9 -112 7 -162 -4 -21 -4 -38 -11 -38 -17 0 -5 -4 -7 -10 -3 -5 3 -17
1 -27 -4 -26 -14 -57 -24 -65 -23 -5 1 -8 -2 -8 -7 0 -5 -8 -11 -17 -14 -36
-12 -167 -96 -223 -143 -158 -134 -276 -253 -370 -374 -19 -25 -38 -46 -42
-48 -5 -2 -8 -8 -8 -13 0 -5 -7 -17 -15 -26 -9 -10 -26 -31 -38 -46 l-22 -28
-67 51 c-39 30 -71 64 -79 83 -7 18 -16 34 -20 37 -3 3 -17 25 -30 50 -22 42
-109 176 -136 210 -137 174 -251 293 -398 415 -33 28 -62 52 -65 55 -3 3 -21
17 -40 30 -19 13 -40 29 -47 36 -19 19 -167 114 -176 113 -5 0 -17 9 -26 20
-10 12 -26 21 -35 21 -9 0 -16 5 -16 11 0 5 -4 7 -10 4 -5 -3 -10 -2 -10 3 0
5 -15 15 -32 23 -18 7 -35 16 -38 19 -12 15 -259 126 -345 155 -62 21 -188 59
-205 62 -22 3 -55 11 -55 13 0 5 -175 27 -197 25 -13 -1 -26 2 -29 7 -3 4 -8
6 -11 3z"/>
</g>
</svg>
